<svg width="24" height="25" viewBox="0 0 24 25" fill="none" xmlns="http://www.w3.org/2000/svg">
<g id="Img">
<path id="Vector" d="M13.962 16.796C12.916 17.4224 11.7192 17.7521 10.5 17.75C9.6134 17.7512 8.7353 17.5772 7.91618 17.2379C7.09707 16.8986 6.35308 16.4008 5.72701 15.773C5.09924 15.1469 4.6014 14.4029 4.26212 13.5838C3.92284 12.7647 3.7488 11.8866 3.75001 11C3.75001 9.13601 4.50501 7.44901 5.72701 6.22701C6.35308 5.59924 7.09707 5.1014 7.91618 4.76212C8.7353 4.42284 9.6134 4.2488 10.5 4.25001C12.364 4.25001 14.051 5.00501 15.273 6.22701C15.9008 6.85308 16.3986 7.59707 16.7379 8.41618C17.0772 9.2353 17.2512 10.1134 17.25 11C17.2517 12.1974 16.9338 13.3736 16.329 14.407C15.812 15.289 15.895 16.395 16.618 17.118L20.471 20.971" stroke="#111111" stroke-width="1.5"/>
</g>
</svg>
